<svg id="レイヤー_1" data-name="レイヤー 1" xmlns="http://www.w3.org/2000/svg" viewBox="0 0 21.96 11.14"><defs><style>.cls-1{fill:#fff;stroke:#000;stroke-linecap:round;stroke-linejoin:round;stroke-width:.57px}.cls-2{fill:#040000}</style></defs><path class="cls-1" d="M1.79 6.1a3.37 3.37 0 0 1 .42-3.72A5.94 5.94 0 0 1 5.62.46 5.24 5.24 0 0 1 8.2.44a3.79 3.79 0 0 1 2.64 3 4.13 4.13 0 0 1-1.46 3.77C7.43 8.8 3.14 8.38 1.79 6.1Z"/><path class="cls-2" d="M4.93 1.3a1.9 1.9 0 0 0-1.1.51 1.76 1.76 0 0 0-.31 1.28.91.91 0 0 0 .4.61c1.46 1 2.24-.1 2.31-1.08a1.31 1.31 0 0 0-1.3-1.32Z"/><path class="cls-1" d="M12.58 6.1A3.37 3.37 0 0 1 13 2.38 5.94 5.94 0 0 1 16.41.46 5.24 5.24 0 0 1 19 .44a3.79 3.79 0 0 1 2.64 3 4.13 4.13 0 0 1-1.46 3.76c-1.96 1.6-6.25 1.18-7.6-1.1Z"/><path class="cls-2" d="M15.73 1.32a1.63 1.63 0 0 0-1.09.5 1.1 1.1 0 0 0-.31.43 2.16 2.16 0 0 0 0 .84.9.9 0 0 0 .39.61 1.87 1.87 0 0 0 1.06.3A1.49 1.49 0 0 0 17 2.63a1.33 1.33 0 0 0-1.27-1.31Z"/><path class="cls-1" d="m7.8 7.01 6.45 1.58L.28 10.86 7.8 7.01z"/></svg>